<?xml version="1.0" encoding="UTF-8" standalone="no"?>
<svg
   xmlns:dc="http://purl.org/dc/elements/1.1/"
   xmlns:cc="http://creativecommons.org/ns#"
   xmlns:rdf="http://www.w3.org/1999/02/22-rdf-syntax-ns#"
   xmlns:svg="http://www.w3.org/2000/svg"
   xmlns="http://www.w3.org/2000/svg"
   viewBox="0 0 185.03027 52.913376"
   height="52.913376"
   width="185.03027"
   xml:space="preserve"
   id="svg201"
   version="1.1"><metadata
     id="metadata207"><rdf:RDF><cc:Work
         rdf:about=""><dc:format>image/svg+xml</dc:format><dc:type
           rdf:resource="http://purl.org/dc/dcmitype/StillImage" /><dc:title></dc:title></cc:Work></rdf:RDF></metadata><defs
     id="defs205"><clipPath
       id="clipPath219"
       clipPathUnits="userSpaceOnUse"><path
         id="path217"
         d="M 0,5216 H 6120 V 0 H 0 Z" /></clipPath><clipPath
       clipPathUnits="userSpaceOnUse"
       id="clipPath3955"><path
         d="M 0,5216 H 6120 V 0 H 0 Z"
         id="path3953" /></clipPath><clipPath
       clipPathUnits="userSpaceOnUse"
       id="clipPath4024"><path
         d="M 0,5216 H 6120 V 0 H 0 Z"
         id="path4022" /></clipPath></defs><g
     style="display:inline"
     transform="matrix(1.3333333,0,0,-1.3333333,-370.48379,1297.6142)"
     id="g209"><g
       style="display:inline"
       transform="matrix(0.01543163,0,0,0.01543163,257.58638,913.12407)"
       id="g4063"><path
         id="path4032"
         style="fill:#2056ae;fill-opacity:1;fill-rule:nonzero;stroke:none"
         d="m 2973.5,3712.84 c -594.96,362.34 -1352.25,-1674 -1408.95,-1161.99 -146.21,986.71 614.86,1299.07 614.86,1299.07 -489.12,-161.8 -874.02,-659.45 -865.31,-1233.89 8.77,-577.51 331.13,-908.65 447.33,-966.13 147.06,-72.73 275.57,-3.66 338.96,58.62 243.93,231.92 684.54,1608.15 1055.91,1501.53 415.58,-99.54 360.53,-976.11 380.59,-1144.08 39.98,-334.85 133.69,-294.87 264.19,-48.87 87.5,164.94 144.38,354.98 143.13,605.5 0,0 -6.25,-93.72 -81.21,-78.09 -67.35,14.02 -92.49,52.54 -261.93,317.56 -177.34,277.37 -448.55,741.75 -627.57,850.77" /><path
         id="path4030"
         style="fill:#66c64e;fill-opacity:1;fill-rule:nonzero;stroke:none"
         d="m 3944.01,2620.54 c -0.93,96.47 -11.87,194.88 -34.16,292.56 -81.21,356.08 -394.19,775.9 -570.37,748.42 -37.05,-5.78 -101.89,-17.94 -189.98,-121.96 31.66,-39.45 64.1,-82.97 96.79,-129.1 64.48,642.41 456.86,-158.42 560.6,-839.72 18.36,-15.12 35.2,-21.86 56.11,-26.23 68.66,-14.29 79.64,62.91 81.01,76.03 m -787.7,589.5 c -80.96,23.25 -165.21,-23.99 -249.98,-114.46 -29.82,-72.99 -60.83,-155.35 -92.97,-248.72 -135.19,-392.59 -303.61,-1119.62 -549.64,-1030.14 -21.42,7.78 -41.83,18.04 -61.22,30.54 -36.85,-61.13 -71.07,-109.22 -102.1,-138.72 -23.05,-22.64 -54.78,-46.1 -92.79,-63.39 466.78,-459.45 1326.49,-440.29 1277.61,130.92 -59.83,699.08 -53.87,981.1 -48.54,1401.77 -24.69,14.1 -51.26,25.23 -80.37,32.2 m -1095.63,-56.43 c 201.93,406.69 506.02,762.17 304.21,739.05 -107.51,-12.33 -219.7,-47.04 -329.1,-101.42 46.66,22.72 94.59,42.46 143.63,58.69 0,0 -418.77,-172.31 -575.25,-664.16 57.94,56.23 126.35,110.48 207.24,161.75 347.41,220.2 -6.14,-219.69 -83.72,-776.56 69.75,90.16 158.06,230.22 258.44,383.02 19.27,70.6 43.95,138.02 74.55,199.63" /><path
         id="path4028"
         style="display:inline;fill:#231f20;fill-opacity:1;fill-rule:nonzero;stroke:none"
         d="m 4798.37,3017.82 v 30.6 h -198.9 v -320.4 h 34.2 v 141.3 h 140.41 v 30.6 h -140.41 v 117.9 z m 130.04,30.6 h -34.2 v -320.4 h 34.2 z m 363.15,-320.4 v 320.4 h -34.19 v -256.05 l -170.1,256.05 h -32.41 v -320.4 h 34.2 v 256.95 l 170.11,-256.95 z m 363.15,0 v 320.4 h -34.19 v -256.05 l -170.1,256.05 h -32.4 v -320.4 h 34.19 v 256.95 l 170.11,-256.95 z m 160.65,320.4 h -34.2 v -320.4 h 34.2 z m 319.51,-232.2 c 0,26.55 -9.45,48.6 -27.01,63.45 -13.5,11.7 -28.35,18 -58.5,22.5 l -35.09,5.4 c -16.66,2.7 -33.31,9 -43.2,17.55 -9.91,8.55 -14.4,21.15 -14.4,36.9 0,35.55 24.74,59.4 67.5,59.4 33.75,0 54.89,-9.45 74.69,-27.45 l 22.05,22.05 c -27.45,24.75 -54.45,35.1 -95.39,35.1 -63.46,0 -102.6,-36 -102.6,-90.45 0,-25.65 8.1,-45.45 24.29,-59.85 13.95,-12.15 33.75,-20.25 58.95,-24.3 l 37.36,-5.85 c 23.39,-3.6 31.49,-6.3 41.84,-15.3 10.35,-9 15.3,-23.4 15.3,-40.05 0,-37.35 -28.8,-59.4 -75.6,-59.4 -36,0 -60.75,8.55 -87.3,35.1 l -23.4,-23.4 c 30.15,-30.15 61.66,-42.3 109.81,-42.3 66.59,0 110.7,34.65 110.7,90.9 m 325.79,-88.2 v 320.4 h -34.2 v -143.55 h -152.1 v 143.55 h -34.2 v -320.4 h 34.2 v 146.25 h 152.1 v -146.25 z m 520.2,0 v 320.4 h -34.21 v -256.05 l -170.1,256.05 h -32.4 v -320.4 h 34.21 v 256.95 l 170.09,-256.95 z m 349.64,0 -117.45,320.4 h -28.8 l -117.9,-320.4 h 36.45 l 25.65,72.45 h 139.95 l 25.65,-72.45 z m -72,102.15 h -119.7 l 60.3,169.2 z m 317.23,187.65 v 30.6 h -219.61 v -30.6 h 92.71 v -289.8 h 34.19 v 289.8 z m 127.79,30.6 h -34.21 v -320.4 h 34.21 z m 338.39,-160.2 c 0,67.95 0,99.45 -30.15,129.6 -21.6,21.6 -49.95,33.3 -81.9,33.3 -31.94,0 -60.3,-11.7 -81.89,-33.3 -30.16,-30.15 -30.16,-61.65 -30.16,-129.6 0,-67.95 0,-99.45 30.16,-129.6 21.59,-21.6 49.95,-33.3 81.89,-33.3 31.95,0 60.3,11.7 81.9,33.3 30.15,30.15 30.15,61.65 30.15,129.6 m -34.2,0 c 0,-67.05 -2.24,-88.65 -22.5,-109.35 -13.95,-14.4 -34.19,-22.95 -55.35,-22.95 -21.15,0 -41.4,8.55 -55.35,22.95 -20.25,20.7 -22.5,42.3 -22.5,109.35 0,67.05 2.25,88.65 22.5,109.35 13.95,14.4 34.2,22.95 55.35,22.95 21.16,0 41.4,-8.55 55.35,-22.95 20.26,-20.7 22.5,-42.3 22.5,-109.35 m 380.7,-160.2 v 320.4 h -34.19 v -256.05 l -170.11,256.05 h -32.39 v -320.4 h 34.19 v 256.95 l 170.11,-256.95 z m 349.65,0 -117.45,320.4 h -28.8 l -117.9,-320.4 h 36.45 l 25.66,72.45 h 139.94 l 25.65,-72.45 z m -71.99,102.15 h -119.71 l 60.31,169.2 z m 355.49,-102.15 v 30.6 h -163.8 v 289.8 h -34.19 v -320.4 h 197.99"
         mask="none" /><path
         id="path4026"
         style="fill:#231f20;fill-opacity:1;fill-rule:nonzero;stroke:none"
         d="m 4822.67,2068.02 -117.45,320.4 h -28.8 l -117.9,-320.4 h 36.45 l 25.66,72.45 h 139.94 l 25.65,-72.45 z m -72,102.15 h -119.7 l 60.31,169.2 z m 365.84,14.85 v 50.85 h -112.95 v -30.15 h 78.75 v -24.3 c 0,-24.75 -4.95,-42.3 -18,-58.05 -14.85,-18 -37.35,-27.45 -60.75,-27.45 -21.15,0 -41.4,8.1 -55.34,22.5 -20.26,20.7 -22.5,42.75 -22.5,109.8 0,67.05 2.24,88.65 22.5,109.35 13.94,14.4 34.19,22.95 55.34,22.95 40.05,0 68.85,-24.75 77.85,-65.25 h 34.2 c -9.45,56.25 -50.84,95.85 -112.05,95.85 -31.95,0 -60.3,-11.7 -81.9,-33.3 -30.15,-30.15 -30.15,-61.65 -30.15,-129.6 0,-67.95 0,-99.45 30.15,-129.6 21.6,-21.6 50.4,-33.3 81.9,-33.3 32.85,0 63,12.6 85.5,36.9 19.8,21.15 27.45,45.9 27.45,82.8 m 312.3,-117 v 30.6 h -164.7 v 115.65 h 140.4 v 30.6 h -140.4 v 112.95 h 164.7 v 30.6 h -198.89 v -320.4 z m 341.55,0 v 320.4 h -34.2 v -256.05 l -170.09,256.05 h -32.4 v -320.4 h 34.19 v 256.95 l 170.11,-256.95 z m 333,92.7 h -34.21 c -8.55,-39.15 -36.9,-64.8 -76.95,-64.8 -21.15,0 -41.39,8.1 -55.35,22.5 -20.25,20.7 -22.5,42.75 -22.5,109.8 0,67.05 2.25,89.1 22.5,109.8 13.96,14.4 34.2,22.5 55.35,22.5 40.05,0 67.5,-25.65 76.06,-64.8 h 35.1 c -10.81,60.3 -53.56,95.4 -111.16,95.4 -31.5,0 -60.3,-11.7 -81.9,-33.3 -30.14,-30.15 -30.14,-61.65 -30.14,-129.6 0,-67.95 0,-99.45 30.14,-129.6 21.6,-21.6 50.4,-33.3 81.9,-33.3 57.15,0 100.8,35.1 111.16,95.4 m 286.2,227.7 h -36.9 l -74.71,-153.45 -75.6,153.45 h -36.9 l 95.41,-188.1 v -132.3 h 34.19 v 132.3 z m 444.14,-30.6 v 30.6 h -198.91 v -320.4 h 34.2 v 141.3 h 140.4 v 30.6 h -140.4 v 117.9 z m 298.77,-129.6 c 0,67.95 0,99.45 -30.15,129.6 -21.59,21.6 -49.95,33.3 -81.9,33.3 -31.95,0 -60.29,-11.7 -81.9,-33.3 -30.15,-30.15 -30.15,-61.65 -30.15,-129.6 0,-67.95 0,-99.45 30.15,-129.6 21.61,-21.6 49.95,-33.3 81.9,-33.3 31.95,0 60.31,11.7 81.9,33.3 30.15,30.15 30.15,61.65 30.15,129.6 m -34.2,0 c 0,-67.05 -2.25,-88.65 -22.5,-109.35 -13.95,-14.4 -34.2,-22.95 -55.35,-22.95 -21.15,0 -41.4,8.55 -55.34,22.95 -20.26,20.7 -22.5,42.3 -22.5,109.35 0,67.05 2.24,88.65 22.5,109.35 13.94,14.4 34.19,22.95 55.34,22.95 21.15,0 41.4,-8.55 55.35,-22.95 20.25,-20.7 22.5,-42.3 22.5,-109.35 m 368.1,-160.2 -76.05,145.35 c 41.4,8.55 69.76,39.15 69.76,85.95 0,55.35 -39.16,89.1 -94.96,89.1 h -122.85 v -320.4 h 34.2 v 142.2 h 76.95 l 72.91,-142.2 z m -40.5,230.85 c 0,-39.15 -26.55,-58.5 -63.89,-58.5 h -85.51 v 117.45 h 85.51 c 37.34,0 63.89,-19.8 63.89,-58.95 m 501.29,-230.85 v 30.6 h -164.7 v 115.65 h 140.4 v 30.6 h -140.4 v 112.95 h 164.7 v 30.6 h -198.9 v -320.4 z m 327.15,163.8 c 0,44.55 1.8,93.6 -31.5,126.9 -19.35,19.35 -47.7,29.7 -81,29.7 h -109.8 v -320.4 h 109.8 c 33.3,0 61.65,10.35 81,29.7 33.3,33.3 31.5,89.55 31.5,134.1 m -34.2,0 c 0,-39.15 0.91,-86.85 -21.15,-109.8 -16.64,-17.1 -38.25,-23.4 -63,-23.4 h -69.75 v 259.2 h 69.75 c 24.75,0 46.36,-6.3 63,-23.4 22.06,-22.95 21.15,-63.45 21.15,-102.6 m 363.15,-58.05 v 214.65 h -34.21 v -211.95 c 0,-48.6 -31.05,-80.55 -77.85,-80.55 -46.8,0 -77.4,31.95 -77.4,80.55 v 211.95 h -34.2 v -214.65 c 0,-63.9 46.81,-108.45 111.6,-108.45 64.8,0 112.06,44.55 112.06,108.45 m 328.49,-13.05 h -34.2 c -8.55,-39.15 -36.9,-64.8 -76.95,-64.8 -21.15,0 -41.4,8.1 -55.35,22.5 -20.25,20.7 -22.5,42.75 -22.5,109.8 0,67.05 2.25,89.1 22.5,109.8 13.95,14.4 34.2,22.5 55.35,22.5 40.05,0 67.5,-25.65 76.05,-64.8 h 35.1 c -10.8,60.3 -53.55,95.4 -111.15,95.4 -31.5,0 -60.3,-11.7 -81.9,-33.3 -30.15,-30.15 -30.15,-61.65 -30.15,-129.6 0,-67.95 0,-99.45 30.15,-129.6 21.6,-21.6 50.4,-33.3 81.9,-33.3 57.15,0 100.81,35.1 111.15,95.4 m 332.55,-92.7 -117.45,320.4 h -28.8 l -117.89,-320.4 h 36.44 l 25.65,72.45 h 139.95 l 25.65,-72.45 z m -72,102.15 h -119.7 l 60.3,169.2 z m 317.22,187.65 v 30.6 h -219.6 v -30.6 h 92.7 v -289.8 h 34.2 v 289.8 z m 127.8,30.6 h -34.19 v -320.4 h 34.19 z m 338.4,-160.2 c 0,67.95 0,99.45 -30.15,129.6 -21.6,21.6 -49.94,33.3 -81.9,33.3 -31.95,0 -60.3,-11.7 -81.9,-33.3 -30.15,-30.15 -30.15,-61.65 -30.15,-129.6 0,-67.95 0,-99.45 30.15,-129.6 21.6,-21.6 49.95,-33.3 81.9,-33.3 31.96,0 60.3,11.7 81.9,33.3 30.15,30.15 30.15,61.65 30.15,129.6 m -34.2,0 c 0,-67.05 -2.25,-88.65 -22.5,-109.35 -13.95,-14.4 -34.2,-22.95 -55.35,-22.95 -21.14,0 -41.4,8.55 -55.35,22.95 -20.25,20.7 -22.5,42.3 -22.5,109.35 0,67.05 2.25,88.65 22.5,109.35 13.95,14.4 34.21,22.95 55.35,22.95 21.15,0 41.4,-8.55 55.35,-22.95 20.25,-20.7 22.5,-42.3 22.5,-109.35 m 385.18,-160.2 v 320.4 h -34.2 v -256.05 l -170.1,256.05 h -32.4 v -320.4 h 34.2 v 256.95 l 170.1,-256.95 h 32.4" /></g></g></svg>